<svg xmlns:dc="http://purl.org/dc/elements/1.1/" xmlns:cc="http://creativecommons.org/ns#" xmlns:rdf="http://www.w3.org/1999/02/22-rdf-syntax-ns#" xmlns:svg="http://www.w3.org/2000/svg" xmlns="http://www.w3.org/2000/svg" xmlns:sodipodi="http://sodipodi.sourceforge.net/DTD/sodipodi-0.dtd" xmlns:inkscape="http://www.inkscape.org/namespaces/inkscape" version="1.1" x="0px" y="0px" viewBox="0 0 100 125"><g transform="translate(0,-952.36218)"><path d="m 24,956.36218 c -0.5523,0 -1,0.4477 -1,1 l 0,12.0938 c -2.8348,0.4746 -5,2.9412 -5,5.9062 0,3.3019 2.6981,6 6,6 3.3019,0 6,-2.6981 6,-6 0,-2.965 -2.1652,-5.4316 -5,-5.9062 l 0,-12.0938 c 0,-0.5523 -0.4477,-1 -1,-1 z m 42,0 c -0.5523,0 -1,0.4477 -1,1 l 0,12.0938 c -2.8348,0.4746 -5,2.9412 -5,5.9062 0,3.3019 2.6981,6 6,6 3.3019,0 6,-2.6981 6,-6 0,-2.965 -2.1652,-5.4316 -5,-5.9062 l 0,-12.0938 c 0,-0.5523 -0.4477,-1 -1,-1 z m -53.9688,6 c -4.9835003,0 -9.0312003,4.0479 -9.0312003,9.0312 l 0,59.93762 c 0,4.9832 4.0477,9.0312 9.0312003,9.0312 l 56.7188,0 c 2.5181,4.7562 7.503,8 13.25,8 8.2724,0 15,-6.7276 15,-15 0,-6.5223 -4.176,-12.0635 -10,-14.125 l 0,-47.84382 c 0,-4.9833 -4.0479,-9.0312 -9.0312,-9.0312 l -5.9688,0 c -0.5283,-0.007 -1.0142,0.47163 -1.0142,1 0,0.52837 0.4859,1.00747 1.0142,1 l 5.9688,0 c 3.9081,0 6.9775,3.12357 7.0312,7.0312 l 0,14.9688 -80.0000002,0 0,-14.9688 c 0,-3.908 3.1230005,-7.0312 7.0312002,-7.0312 l 5.9688,0 c 0.5283,0.007 1.0142,-0.47163 1.0142,-1 0,-0.52837 -0.4859,-1.00747 -1.0142,-1 z m 17.9688,0 c -0.5523,0 -1,0.4477 -1,1 0,0.5523 0.4477,1 1,1 l 30,0 c 0.5523,0 1,-0.4477 1,-1 0,-0.5523 -0.4477,-1 -1,-1 z m -6,9 c 2.221,0 4,1.779 4,4 0,2.221 -1.779,4 -4,4 -2.221,0 -4,-1.779 -4,-4 0,-2.221 1.779,-4 4,-4 z m 42,0 c 2.221,0 4,1.779 4,4 0,2.221 -1.779,4 -4,4 -2.221,0 -4,-1.779 -4,-4 0,-2.221 1.779,-4 4,-4 z m -61.0000002,17 80.0000002,0 0,30.31252 c -0.9665,-0.1962 -1.9764,-0.3125 -3,-0.3125 -8.2724,0 -15,6.7276 -15,15 0,1.7501 0.3218,3.4372 0.875,5 l -55.8438,0 c -3.9081998,0 -7.0312003,-3.1233 -7.0312003,-7.0312 z M 82,1020.3622 c 7.1916,0 13,5.8084 13,13 0,7.1915 -5.8084,13 -13,13 -7.1915,0 -13,-5.8085 -13,-13 0,-7.1916 5.8085,-13 13,-13 z m 6.8125,8 c -0.2406,0.036 -0.4447,0.1551 -0.5937,0.375 l -7.4063,9.25 -6.2187,-4.4375 c -0.4255,-0.3109 -1.0954,-0.2066 -1.4063,0.2187 -0.3108,0.4255 -0.2067,1.0955 0.2187,1.4063 l 7,5 c 0.4127,0.3017 1.0581,0.2136 1.375,-0.1875 l 8,-10 c 0.3126,-0.4353 0.3608,-0.9945 -0.1874,-1.4375 -0.2636,-0.1751 -0.5407,-0.2232 -0.7813,-0.1875 z" style="text-indent:0;text-transform:none;direction:ltr;block-progression:tb;baseline-shift:baseline;color:#5FAACF;enable-background:accumulate;" fill="#5FAACF" fill-opacity="1" fill-rule="nonzero" stroke="none" marker="none" visibility="visible" display="inline" overflow="visible"/></g></svg>
