<svg xmlns="http://www.w3.org/2000/svg" xmlns:xlink="http://www.w3.org/1999/xlink" version="1.1" x="0px" y="0px" viewBox="0 0 100 125" style="enable-background:new 0 0 100 100;" xml:space="preserve"><path d="M52.22,52.42c0,3.084,2.509,5.593,5.592,5.593h0.188c1.98,0,3.592,1.611,3.592,3.592c0,1.981-1.611,3.593-3.592,3.593  c-1.981,0-3.593-1.611-3.593-3.593c0-0.553-0.447-1-1-1s-1,0.447-1,1c0,2.676,1.89,4.917,4.405,5.463v1.008c0,0.553,0.447,1,1,1  s1-0.447,1-1v-0.944c2.698-0.396,4.779-2.72,4.779-5.527c0-3.083-2.509-5.592-5.592-5.592h-0.188c-1.98,0-3.592-1.611-3.592-3.593  c0-1.98,1.611-3.592,3.592-3.592c1.981,0,3.593,1.611,3.593,3.592c0,0.553,0.447,1,1,1s1-0.447,1-1c0-2.741-1.985-5.024-4.593-5.497  V45.83c0-0.553-0.447-1-1-1s-1,0.447-1,1v1.093C54.205,47.396,52.22,49.679,52.22,52.42z" fill="#5FAACF"/><path d="M41.79,53.212l2.075-1.79v20.82c0,0.553,0.447,1,1,1h26.33c0.553,0,1-0.447,1-1v-20.82l2.075,1.79  c0.189,0.163,0.422,0.243,0.653,0.243c0.28,0,0.56-0.117,0.757-0.347c0.361-0.418,0.314-1.05-0.104-1.41L58.684,37.125  c-0.375-0.324-0.932-0.324-1.307,0L40.483,51.698c-0.418,0.36-0.465,0.992-0.104,1.41C40.739,53.527,41.371,53.572,41.79,53.212z   M58.03,39.202l12.165,10.494v21.546h-24.33V49.696L58.03,39.202z" fill="#5FAACF"/><path d="M11.094,26.87h4.979v62.153c0,0.553,0.447,1,1,1h8.253c0.553,0,1-0.447,1-1V26.87h8.514v4.153h-3.157c-0.553,0-1,0.447-1,1  v48.169c0,0.553,0.447,1,1,1h52.694c0.553,0,1-0.447,1-1V32.023c0-0.553-0.447-1-1-1h-4.109V26.87h4.764  c2.791,0,5.062-2.271,5.062-5.063c0-2.791-2.271-5.062-5.062-5.062H26.326v-5.721c0-0.553-0.447-1-1-1h-8.253c-0.553,0-1,0.447-1,1  v5.721h-4.979c-0.553,0-1,0.447-1,1v8.126C10.094,26.423,10.541,26.87,11.094,26.87z M24.326,88.023h-6.253V26.87h6.253V88.023z   M83.377,79.192H32.683V33.023h50.694V79.192z M78.268,31.023H36.84V26.87h41.428V31.023z M18.073,12.023h6.253v4.721h-6.253V12.023  z M12.094,18.744h72.938c1.688,0,3.062,1.374,3.062,3.062c0,1.689-1.374,3.063-3.062,3.063H12.094V18.744z" fill="#5FAACF"/></svg>
