<svg id="Layer_1" data-name="Layer 1" xmlns="http://www.w3.org/2000/svg" viewBox="0 0 1249 702.35"><defs><style>.cls-1{font-size:190px;font-family:AvenirNext-DemiBold, Avenir Next;font-weight:700;}.cls-1,.cls-3,.cls-8{fill:#5faacf;}.cls-2{letter-spacing:-0.02em;}.cls-3{font-size:68px;font-family:AvenirNext-UltraLight, Avenir Next;}.cls-4{letter-spacing:-0.01em;}.cls-5{letter-spacing:-0.02em;}.cls-6,.cls-7{fill:none;stroke:#5faacf;stroke-width:2.5px;}.cls-6{stroke-linecap:round;}</style></defs><title>jerseylogo</title><text class="cls-1" transform="translate(0 567.56)">JerseyG<tspan class="cls-2" x="710.59" y="0">r</tspan><tspan x="776.33" y="0">ound</tspan></text><text class="cls-3" transform="translate(53.15 677.33)"><tspan class="cls-4">C</tspan><tspan x="48.42" y="0">ONVENIENCE ON</tspan><tspan class="cls-5" x="622.06" y="0" xml:space="preserve"> Y</tspan><tspan x="672.38" y="0">OUR</tspan><tspan class="cls-5" x="821.84" y="0"> </tspan><tspan x="837.21" y="0">TIMELINE</tspan></text><path class="cls-6" d="M482.2,348.23l119.23-47.9c9.9-4,26.89-5.48,37.86-3.38l122.79,23.58c13.18,2.53,20.57,12.09,16.47,21.39l-.09.2c-4.08,9.28-18.51,16.27-32.15,15.61l-100.53-4.88" transform="translate(-73 -34)"/><path class="cls-6" d="M781,343.31l171.6-19.89c12.4-1.44,24.51,4.43,27.07,13.16l-.16-.54c2.55,8.7-4.6,18.73-16.08,22.43l-233,75c-10.4,3.35-28,6.07-39.45,6.07H483.85" transform="translate(-73 -34)"/><polygon class="cls-7" points="343 290.92 343 417.6 408.91 417.6 408.91 290.92 343 290.92"/><path class="cls-8" d="M811.11,154.53l-37.75-40.05V67.18H755.72V95.76L697.51,34,583.91,154.53h19.25V274H717.41V180.45h35.27V274h39.18V154.53ZM676.63,224.11H641.35V180.46h35.27Z" transform="translate(-73 -34)"/></svg>