<svg xmlns="http://www.w3.org/2000/svg" xmlns:xlink="http://www.w3.org/1999/xlink" version="1.1" x="0px" y="0px" viewBox="0 0 100 125" style="enable-background:new 0 0 100 100;" xml:space="preserve"><g><g><path d="M89.6,25H20.4c-0.6,0-1,0.4-1,1v37.9c0,0.6,0.4,1,1,1h69.2c0.6,0,1-0.4,1-1V26C90.6,25.4,90.2,25,89.6,25z M88.6,62.9    H21.4V27h67.2V62.9z" fill="#5FAACF"/><path d="M84.4,67.9H16.2V30.9c0-0.6-0.4-1-1-1s-1,0.4-1,1v37.9c0,0.6,0.4,1,1,1h69.2c0.6,0,1-0.4,1-1S84.9,67.9,84.4,67.9z" fill="#5FAACF"/><path d="M79.6,73H11.4V36.1c0-0.6-0.4-1-1-1s-1,0.4-1,1V74c0,0.6,0.4,1,1,1h69.2c0.6,0,1-0.4,1-1S80.1,73,79.6,73z" fill="#5FAACF"/><path d="M55,56.3c6.2,0,11.3-5.1,11.3-11.3c0-6.2-5.1-11.3-11.3-11.3S43.7,38.7,43.7,45C43.7,51.2,48.8,56.3,55,56.3z M55,35.6    c5.1,0,9.3,4.2,9.3,9.3c0,5.1-4.2,9.3-9.3,9.3s-9.3-4.2-9.3-9.3C45.7,39.8,49.9,35.6,55,35.6z" fill="#5FAACF"/><path d="M54.7,49.1c-1,0-1.9-0.3-2.5-0.7l-0.4,1.2c0.6,0.4,1.6,0.7,2.6,0.8V52h1.1v-1.8c1.8-0.3,2.7-1.6,2.7-2.9    c0-1.5-0.9-2.4-2.7-3.1c-1.5-0.6-2.1-1.1-2.1-2c0-0.7,0.5-1.5,1.8-1.5c1.1,0,1.8,0.4,2.2,0.6l0.4-1.1c-0.5-0.3-1.2-0.6-2.2-0.6    v-1.7h-1.1v1.7c-1.6,0.3-2.6,1.3-2.6,2.8c0,1.5,1.1,2.3,2.8,3c1.3,0.5,1.9,1.1,1.9,2C56.7,48.4,55.9,49.1,54.7,49.1z" fill="#5FAACF"/><path d="M29,46h9c0.6,0,1-0.4,1-1s-0.4-1-1-1h-9c-0.6,0-1,0.4-1,1S28.4,46,29,46z" fill="#5FAACF"/><path d="M72.6,46h9c0.6,0,1-0.4,1-1s-0.4-1-1-1h-9c-0.6,0-1,0.4-1,1S72.1,46,72.6,46z" fill="#5FAACF"/></g></g></svg>
